<svg xmlns="http://www.w3.org/2000/svg" viewBox="0 0 404 64" role="img" aria-label="iDispečink.cz">
  <title>iDispečink.cz</title>
  <g fill="none">
    <rect x="1" y="3" width="54" height="40" rx="5" stroke="#F0EDE6" stroke-width="6"/>
    <rect x="22" y="43" width="10" height="8" fill="#F0EDE6"/>
    <rect x="12" y="51" width="28" height="6" rx="3" fill="#F0EDE6"/>
  </g>
  <path d="M32 28 L68 17 L68 48 L32 48 Z" fill="#F0B41E"/>
  <path d="M68 22 h14 a4 4 0 0 1 3.3 1.8 L93 35 a5 5 0 0 1 .9 2.8 V48 H68 Z" fill="#F0B41E"/>
  <rect x="71" y="25.5" width="7.5" height="7.5" rx="1.7" fill="#343F41"/>
  <path d="M82 25.5 h1.5 a2 2 0 0 1 1.7 1 L89.4 32.6 a1.4 1.4 0 0 1-1.2 2.1 H82 a1.7 1.7 0 0 1-1.7-1.7 v-5.8 a1.7 1.7 0 0 1 1.7-1.7 Z" fill="#343F41"/>
  <rect x="32" y="48" width="62" height="3.6" fill="#343F41"/>
  <circle cx="50" cy="55" r="7.5" fill="#343F41"/><circle cx="50" cy="55" r="3.2" fill="#F0B41E"/>
  <circle cx="85" cy="55" r="7.5" fill="#343F41"/><circle cx="85" cy="55" r="3.2" fill="#F0B41E"/>
  <!-- textLength drží šířku nápisu stejnou i tam, kde Segoe UI chybí -->
  <text x="108" y="45" textLength="290" lengthAdjust="spacingAndGlyphs"
        font-family="'Segoe UI', Inter, system-ui, -apple-system, Arial, sans-serif"
        font-size="36" font-weight="700" fill="#F0EDE6">iDispečink<tspan fill="#F0B41E">.</tspan>cz</text>
</svg>
